<mxfile host="app.diagrams.net" modified="2024-02-11T14:42:47.158Z" agent="Mozilla/5.0 (Macintosh; Intel Mac OS X 10.15; rv:122.0) Gecko/20100101 Firefox/122.0" version="23.1.2" etag="wAtCzM5HlINJURssl7Ud" type="github">
  <diagram name="Page-1" id="r8aKOiXqEZqTZPGIx8Sp">
    <mxGraphModel>
      <root>
        <mxCell id="0" />
        <mxCell id="1" parent="0" />
      </root>
    </mxGraphModel>
  </diagram>
</mxfile>
